<svg width="52" height="63" viewBox="0 0 52 63" fill="none" xmlns="http://www.w3.org/2000/svg">
<path fill-rule="evenodd" clip-rule="evenodd" d="M17.9797 0.83873C18.5155 0.301713 19.2422 0 20 0H42.8571C47.5911 0 51.4286 3.84629 51.4286 8.59091V22.9091C51.4286 24.4906 50.1494 25.7727 48.5714 25.7727C46.9934 25.7727 45.7143 24.4906 45.7143 22.9091V8.59091C45.7143 7.00938 44.4351 5.72727 42.8571 5.72727H22.8571V20.0455C22.8571 21.627 21.578 22.9091 20 22.9091H5.71429V54.4091C5.71429 55.9907 6.99349 57.2727 8.57143 57.2727H11.4286C13.0065 57.2727 14.2857 58.5548 14.2857 60.1364C14.2857 61.718 13.0065 63 11.4286 63H8.57143C3.83757 63 0 59.1539 0 54.4091V20.0455C0 19.286 0.301029 18.5576 0.836829 18.0205L17.9797 0.83873ZM9.75489 17.1818H17.1429V9.77706L9.75489 17.1818Z" fill="#4CAF50"/>
<path d="M44.0809 49.24C42.9742 49.24 41.9009 49.0933 40.8609 48.8C39.8342 48.4933 39.0075 48.1 38.3809 47.62L39.4809 45.18C40.0809 45.62 40.7942 45.9733 41.6209 46.24C42.4475 46.5067 43.2742 46.64 44.1009 46.64C45.0209 46.64 45.7009 46.5067 46.1409 46.24C46.5809 45.96 46.8009 45.5933 46.8009 45.14C46.8009 44.8067 46.6675 44.5333 46.4009 44.32C46.1475 44.0933 45.8142 43.9133 45.4009 43.78C45.0009 43.6467 44.4542 43.5 43.7609 43.34C42.6942 43.0867 41.8209 42.8333 41.1409 42.58C40.4609 42.3267 39.8742 41.92 39.3809 41.36C38.9009 40.8 38.6609 40.0533 38.6609 39.12C38.6609 38.3067 38.8809 37.5733 39.3209 36.92C39.7609 36.2533 40.4209 35.7267 41.3009 35.34C42.1942 34.9533 43.2809 34.76 44.5609 34.76C45.4542 34.76 46.3275 34.8667 47.1809 35.08C48.0342 35.2933 48.7809 35.6 49.4209 36L48.4209 38.46C47.1275 37.7267 45.8342 37.36 44.5409 37.36C43.6342 37.36 42.9609 37.5067 42.5209 37.8C42.0942 38.0933 41.8809 38.48 41.8809 38.96C41.8809 39.44 42.1275 39.8 42.6209 40.04C43.1275 40.2667 43.8942 40.4933 44.9209 40.72C45.9875 40.9733 46.8609 41.2267 47.5409 41.48C48.2209 41.7333 48.8009 42.1333 49.2809 42.68C49.7742 43.2267 50.0209 43.9667 50.0209 44.9C50.0209 45.7 49.7942 46.4333 49.3409 47.1C48.9009 47.7533 48.2342 48.2733 47.3409 48.66C46.4475 49.0467 45.3609 49.24 44.0809 49.24Z" fill="#4CAF50"/>
<path d="M27.4888 35H30.7288V46.36H37.7488V49H27.4888V35Z" fill="#4CAF50"/>
<path d="M22.4805 49L19.1005 44.14L15.7805 49H12.0605L17.2405 41.88L12.3205 35H16.0005L19.2205 39.54L22.3805 35H25.8805L21.0005 41.76L26.2205 49H22.4805Z" fill="#4CAF50"/>
</svg>
