<svg width="52" height="63" viewBox="0 0 52 63" fill="none" xmlns="http://www.w3.org/2000/svg">
<path fill-rule="evenodd" clip-rule="evenodd" d="M17.9797 0.83873C18.5155 0.301713 19.2422 0 20 0H42.8571C47.5911 0 51.4286 3.84629 51.4286 8.59091V22.9091C51.4286 24.4906 50.1494 25.7727 48.5714 25.7727C46.9934 25.7727 45.7143 24.4906 45.7143 22.9091V8.59091C45.7143 7.00938 44.4351 5.72727 42.8571 5.72727H22.8571V20.0455C22.8571 21.627 21.578 22.9091 20 22.9091H5.71429V54.4091C5.71429 55.9907 6.99349 57.2727 8.57143 57.2727H11.4286C13.0065 57.2727 14.2857 58.5548 14.2857 60.1364C14.2857 61.718 13.0065 63 11.4286 63H8.57143C3.83757 63 0 59.1539 0 54.4091V20.0455C0 19.286 0.301029 18.5576 0.836829 18.0205L17.9797 0.83873ZM9.75489 17.1818H17.1429V9.77706L9.75489 17.1818Z" fill="#F44336"/>
<path d="M42.8767 37.6V41.3H49.3567V43.9H42.8767V49H39.6367V35H50.2167V37.6H42.8767Z" fill="#F44336"/>
<path d="M23.1133 35H29.4733C30.9933 35 32.3333 35.2933 33.4933 35.88C34.6666 36.4533 35.5733 37.2667 36.2133 38.32C36.8666 39.3733 37.1933 40.6 37.1933 42C37.1933 43.4 36.8666 44.6267 36.2133 45.68C35.5733 46.7333 34.6666 47.5533 33.4933 48.14C32.3333 48.7133 30.9933 49 29.4733 49H23.1133V35ZM29.3133 46.34C30.7133 46.34 31.8266 45.9533 32.6533 45.18C33.4933 44.3933 33.9133 43.3333 33.9133 42C33.9133 40.6667 33.4933 39.6133 32.6533 38.84C31.8266 38.0533 30.7133 37.66 29.3133 37.66H26.3533V46.34H29.3133Z" fill="#F44336"/>
<path d="M14.7202 35C15.9602 35 17.0335 35.2067 17.9402 35.62C18.8602 36.0333 19.5668 36.62 20.0602 37.38C20.5535 38.14 20.8002 39.04 20.8002 40.08C20.8002 41.1067 20.5535 42.0067 20.0602 42.78C19.5668 43.54 18.8602 44.1267 17.9402 44.54C17.0335 44.94 15.9602 45.14 14.7202 45.14H11.9002V49H8.66016V35H14.7202ZM14.5402 42.5C15.5135 42.5 16.2535 42.2933 16.7602 41.88C17.2668 41.4533 17.5202 40.8533 17.5202 40.08C17.5202 39.2933 17.2668 38.6933 16.7602 38.28C16.2535 37.8533 15.5135 37.64 14.5402 37.64H11.9002V42.5H14.5402Z" fill="#F44336"/>
</svg>
