<svg width="577" height="326" viewBox="0 0 577 326" fill="none" xmlns="http://www.w3.org/2000/svg">
<rect width="577" height="326" rx="25" fill="#D9D9D9"/>
<path d="M302.017 185.64L292.426 176.129C287.798 171.539 285.483 169.244 282.828 168.405C280.492 167.668 277.982 167.695 275.663 168.483C273.026 169.379 270.762 171.724 266.234 176.412L243.254 199.11M302.017 185.64L303.98 183.694C308.614 179.099 310.931 176.801 313.59 175.962C315.928 175.224 318.44 175.254 320.76 176.045C323.399 176.944 325.662 179.295 330.189 183.995L335 188.837M302.017 185.64L325.081 208.75M243.254 199.11C243.432 200.559 243.736 201.705 244.253 202.721C245.356 204.884 247.115 206.644 249.279 207.746C251.739 209 254.959 209 261.4 209H316.6C320.362 209 323.026 209 325.081 208.75M243.254 199.11C243 197.052 243 194.38 243 190.6V135.4C243 128.959 243 125.739 244.253 123.279C245.356 121.115 247.115 119.356 249.279 118.253C251.739 117 254.959 117 261.4 117H316.6C323.04 117 326.261 117 328.721 118.253C330.884 119.356 332.644 121.115 333.746 123.279C335 125.739 335 128.959 335 135.4V188.837M335 188.837V190.6C335 197.04 335 200.261 333.746 202.721C332.644 204.884 330.884 206.644 328.721 207.746C327.698 208.268 326.543 208.572 325.081 208.75M317.75 145.749C317.75 152.101 312.601 157.249 306.25 157.249C299.898 157.249 294.75 152.101 294.75 145.749C294.75 139.398 299.898 134.249 306.25 134.249C312.601 134.249 317.75 139.398 317.75 145.749Z" stroke="#ACB6BF" stroke-width="11.5" stroke-linecap="round" stroke-linejoin="round"/>
</svg>
